<?xml version="1.0" encoding="UTF-8" standalone="no"?>
<!DOCTYPE svg PUBLIC "-//W3C//DTD SVG 1.1//EN" "http://www.w3.org/Graphics/SVG/1.1/DTD/svg11.dtd">
<svg xmlns="http://www.w3.org/2000/svg" version="1.1" viewBox="0.00 0.00 612.00 612.00">
<path fill="#baa377" d="
  M 611.13 307.31
  Q 611.01 337.88 604.75 368.25
  C 580.30 486.98 486.61 581.11 367.70 605.36
  C 286.11 622.00 201.62 605.16 133.27 558.00
  C 50.21 500.70 0.50 406.17 0.90 304.86
  C 1.31 203.55 51.78 109.43 135.30 52.79
  C 204.02 6.18 288.65 -9.98 370.10 7.31
  C 488.81 32.52 581.74 127.40 605.24 246.32
  Q 611.25 276.74 611.13 307.31
  Z
  M 238.46 23.95
  A 0.83 0.81 -81.9 0 0 239.21 24.97
  C 242.15 25.10 245.43 25.58 247.68 27.40
  C 254.11 32.59 249.05 42.44 241.24 41.57
  Q 236.33 41.03 234.74 36.36
  Q 233.82 33.68 233.91 32.63
  C 234.07 30.71 236.20 28.48 237.37 26.71
  A 1.36 1.36 0.0 0 0 235.91 24.64
  Q 189.33 35.98 149.08 62.32
  A 1.32 1.32 0.0 0 0 149.52 64.71
  Q 155.41 66.00 155.86 66.16
  C 159.18 67.40 159.00 72.63 158.70 75.54
  C 158.25 79.77 154.92 81.80 150.69 80.94
  Q 145.81 79.95 145.55 79.79
  Q 142.10 77.61 142.84 74.48
  Q 143.66 71.00 144.14 67.96
  A 1.28 1.28 0.0 0 0 142.49 66.54
  Q 142.11 66.66 141.40 67.17
  C 124.86 79.02 108.33 93.14 94.72 107.60
  Q 29.69 176.68 17.59 272.55
  C 3.01 388.05 62.92 501.37 163.08 558.19
  C 262.48 614.58 387.40 607.14 478.75 538.73
  Q 509.97 515.35 534.14 485.05
  C 561.63 450.59 580.01 411.08 589.41 367.47
  C 599.10 322.55 598.91 278.26 587.04 233.90
  C 573.26 182.41 547.31 135.90 508.87 98.90
  C 451.40 43.60 374.97 13.10 295.25 16.31
  Q 266.77 17.45 238.93 23.52
  Q 238.78 23.55 238.64 23.68
  Q 238.50 23.80 238.46 23.95
  Z"
/>
<ellipse fill="#baa377" cx="0.00" cy="0.00" transform="translate(306.46,27.12) rotate(-31.5)" rx="8.18" ry="7.27"/>
<circle fill="#baa377" cx="275.81" cy="28.04" r="8.29"/>
<path fill="#baa377" d="
  M 350.07 27.48
  Q 349.88 32.61 346.22 34.92
  C 342.21 37.43 337.11 36.25 334.64 32.21
  C 332.31 28.39 333.63 23.28 337.37 21.04
  C 342.65 17.87 348.40 20.73 349.97 26.56
  A 3.11 3.01 -52.2 0 1 350.07 27.48
  Z"
/>
<ellipse fill="#baa377" cx="0.00" cy="0.00" transform="translate(372.89,34.27) rotate(-165.8)" rx="8.68" ry="8.25"/>
<circle fill="#baa377" cx="209.97" cy="43.40" r="8.25"/>
<circle fill="#baa377" cx="403.63" cy="44.31" r="8.21"/>
<ellipse fill="#baa377" cx="0.00" cy="0.00" transform="translate(180.10,56.12) rotate(-12.1)" rx="8.65" ry="8.05"/>
<path fill="#baa377" d="
  M 270.81 49.34
  A 1.94 1.93 48.1 0 1 270.65 52.40
  Q 265.04 56.27 260.13 59.61
  A 3.49 3.48 55.5 0 1 255.30 58.71
  L 253.38 55.92
  A 1.99 1.99 0.0 0 1 254.51 52.87
  Q 264.05 50.35 268.87 48.90
  Q 269.93 48.58 270.81 49.34
  Z"
/>
<path fill="#baa377" d="
  M 375.34 58.91
  Q 371.77 61.61 367.34 64.55
  C 365.67 65.66 364.27 64.86 362.97 63.44
  Q 361.73 62.07 352.99 52.70
  Q 352.33 52.00 352.50 51.45
  A 1.31 1.29 16.6 0 1 354.12 50.58
  Q 374.89 56.90 375.06 56.96
  A 1.12 1.12 0.0 0 1 375.34 58.91
  Z"
/>
<path fill="#baa377" d="
  M 426.52 56.11
  A 3.43 3.43 0.0 0 1 428.96 51.92
  L 431.14 51.35
  A 9.82 7.62 -14.8 0 1 442.58 56.20
  L 442.65 56.46
  A 9.82 7.62 -14.8 0 1 435.10 66.33
  L 432.92 66.91
  A 3.43 3.43 0.0 0 1 428.73 64.47
  L 426.52 56.11
  Z"
/>
<path fill="#baa377" d="
  M 271.56 178.93
  C 264.50 163.46 260.28 145.88 257.32 128.62
  C 254.97 114.90 253.69 103.64 255.71 90.76
  C 258.02 75.94 266.03 63.25 280.00 57.29
  C 295.86 50.53 316.27 48.88 332.64 54.99
  Q 345.50 59.78 355.23 71.89
  C 361.07 79.16 362.90 88.46 362.75 97.27
  Q 362.51 112.17 358.78 127.07
  Q 352.30 152.98 341.04 179.11
  C 340.07 181.36 338.30 181.29 336.08 180.67
  Q 309.96 173.35 283.02 179.07
  Q 279.66 179.78 275.43 180.81
  A 3.39 3.38 -19.1 0 1 271.56 178.93
  Z"
/>
<path fill="#baa377" d="
  M 246.26 82.57
  A 1.50 1.45 69.2 0 1 244.18 81.59
  Q 243.87 80.41 238.64 60.10
  C 237.56 55.93 242.12 53.23 245.45 55.98
  Q 251.26 60.79 253.51 62.68
  A 2.25 2.24 -58.4 0 1 254.13 65.30
  C 251.01 72.50 247.15 82.09 246.26 82.57
  Z"
/>
<path fill="#baa377" d="
  M 230.03 59.01
  Q 230.48 59.34 230.94 60.74
  Q 233.42 68.39 238.51 84.21
  A 1.66 1.64 67.5 0 1 237.71 86.18
  Q 236.89 86.60 236.19 86.22
  Q 233.60 84.87 219.27 77.02
  A 1.51 1.51 0.0 0 1 218.66 74.96
  Q 224.17 64.83 226.97 59.77
  C 227.58 58.67 228.99 58.26 230.03 59.01
  Z"
/>
<path fill="#baa377" d="
  M 376.13 88.81
  C 375.21 88.24 371.70 77.64 368.84 69.66
  A 2.43 2.42 62.1 0 1 369.69 66.89
  Q 372.24 65.01 378.83 60.22
  C 382.61 57.48 387.33 60.71 385.89 65.13
  Q 378.86 86.65 378.44 87.90
  A 1.61 1.56 -65.6 0 1 376.13 88.81
  Z"
/>
<path fill="#baa377" d="
  M 383.84 92.19
  A 1.72 1.66 -75.6 0 1 382.53 89.89
  Q 383.02 88.58 391.54 66.07
  C 393.29 61.44 399.35 61.92 400.65 66.70
  Q 402.93 75.06 403.79 78.32
  A 2.59 2.58 -23.2 0 1 402.64 81.18
  C 394.95 85.88 384.98 92.33 383.84 92.19
  Z"
/>
<path fill="#baa377" d="
  M 218.07 64.80
  Q 216.79 68.87 214.97 73.60
  C 214.29 75.37 212.76 75.52 210.97 75.14
  Q 209.25 74.76 197.30 72.31
  Q 196.40 72.12 196.23 71.61
  A 1.24 1.23 -18.8 0 1 197.01 70.04
  Q 216.62 63.49 216.79 63.45
  A 1.07 1.07 0.0 0 1 218.07 64.80
  Z"
/>
<circle fill="#baa377" cx="464.95" cy="76.12" r="8.09"/>
<path fill="#baa377" d="
  M 425.07 75.47
  A 2.05 2.05 0.0 0 1 423.17 78.10
  Q 415.95 78.34 409.66 78.50
  A 3.69 3.69 0.0 0 1 405.88 74.93
  L 405.76 71.34
  A 2.11 2.10 8.1 0 1 408.52 69.27
  Q 418.47 72.49 423.59 73.96
  Q 424.72 74.28 425.07 75.47
  Z"
/>
<circle fill="#baa377" cx="123.27" cy="94.04" r="8.16"/>
<path fill="#baa377" d="
  M 233.01 198.93
  C 223.79 205.45 215.26 213.44 207.79 221.97
  A 1.68 1.68 0.0 0 1 205.64 222.29
  Q 173.32 202.31 149.13 173.89
  Q 144.56 168.52 140.84 160.83
  C 129.06 136.44 142.20 112.89 162.21 98.75
  C 182.22 84.61 208.80 80.08 227.86 99.34
  Q 233.87 105.41 237.41 111.51
  Q 256.12 143.80 264.16 180.93
  A 1.68 1.68 0.0 0 1 263.14 182.85
  C 252.61 187.05 242.22 192.42 233.01 198.93
  Z"
/>
<path fill="#baa377" d="
  M 489.77 88.87
  A 2.93 2.93 0.0 0 1 493.90 88.51
  L 496.19 90.44
  A 8.05 7.81 40.0 0 1 497.34 101.60
  L 497.11 101.87
  A 8.05 7.81 40.0 0 1 485.92 102.68
  L 483.62 100.75
  A 2.93 2.93 0.0 0 1 483.26 96.62
  L 489.77 88.87
  Z"
/>
<path fill="#baa377" d="
  M 409.00 225.15
  A 1.85 1.84 -32.5 0 1 406.76 224.66
  Q 384.98 197.96 352.97 185.29
  A 2.50 2.49 -71.6 0 1 351.49 182.32
  Q 360.28 149.92 379.02 121.08
  Q 389.31 105.26 398.50 99.38
  C 416.42 87.94 437.39 91.22 454.43 103.02
  Q 473.92 116.51 481.05 138.58
  C 488.86 162.77 467.11 186.08 449.81 199.59
  Q 430.73 214.50 409.00 225.15
  Z"
/>
<circle fill="#baa377" cx="99.22" cy="118.04" r="8.20"/>
<rect fill="#baa377" x="-7.94" y="-7.94" transform="translate(514.26,121.05) rotate(-41.8)" width="15.88" height="15.88" rx="5.76"/>
<path fill="#baa377" d="
  M 133.08 113.46
  A 1.11 1.10 -77.0 0 1 133.99 114.92
  Q 131.25 122.88 127.76 132.66
  A 1.88 1.87 -78.4 0 1 125.89 133.91
  L 116.12 133.31
  A 0.83 0.83 0.0 0 1 115.47 132.93
  Q 114.75 131.83 115.77 130.77
  Q 124.87 121.33 132.24 113.75
  A 0.96 0.85 -75.9 0 1 132.49 113.58
  Q 132.84 113.44 133.08 113.46
  Z"
/>
<path fill="#baa377" d="
  M 488.95 122.18
  Q 489.22 122.17 489.60 122.35
  A 1.08 0.95 79.4 0 1 489.87 122.56
  Q 497.63 131.57 507.20 142.79
  Q 508.27 144.05 507.39 145.24
  A 0.93 0.93 0.0 0 1 506.64 145.62
  L 495.63 145.62
  A 2.11 2.10 81.9 0 1 493.61 144.09
  Q 490.36 132.88 487.83 123.76
  A 1.24 1.24 0.0 0 1 488.95 122.18
  Z"
/>
<circle fill="#baa377" cx="81.33" cy="140.64" r="8.32"/>
<circle fill="#baa377" cx="534.66" cy="145.80" r="8.24"/>
<path fill="#baa377" d="
  M 132.19 162.23
  A 1.77 1.72 29.9 0 1 129.55 162.90
  Q 128.38 162.05 108.33 147.38
  C 104.21 144.37 106.35 138.47 111.47 138.49
  Q 120.41 138.53 123.89 138.57
  A 2.67 2.66 82.2 0 1 126.42 140.50
  C 128.98 149.44 132.65 161.13 132.19 162.23
  Z"
/>
<path fill="#baa377" d="
  M 103.05 169.57
  L 98.51 152.69
  A 2.26 2.25 50.8 0 1 98.67 151.09
  C 100.03 148.31 102.19 148.88 104.34 150.54
  Q 120.87 163.27 124.69 166.05
  Q 126.08 167.06 126.24 167.84
  A 1.66 1.66 0.0 0 1 124.65 169.82
  Q 117.95 169.96 103.73 170.08
  A 0.70 0.69 82.3 0 1 103.05 169.57
  Z"
/>
<path fill="#baa377" d="
  M 488.41 177.48
  A 1.30 1.30 0.0 0 1 486.82 175.70
  Q 491.44 165.72 492.38 154.20
  Q 492.51 152.62 494.75 151.58
  A 1.27 1.26 -58.6 0 1 495.26 151.46
  Q 502.43 151.06 512.57 150.66
  Q 514.22 150.59 515.00 152.16
  A 2.71 2.69 56.4 0 1 514.36 155.42
  Q 490.90 175.58 489.47 176.81
  Q 488.83 177.35 488.41 177.48
  Z"
/>
<path fill="#baa377" d="
  M 79.06 182.02
  Q 78.98 181.78 79.04 181.41
  A 0.97 0.86 -27.3 0 1 79.15 181.12
  Q 84.93 172.04 92.16 160.82
  Q 92.97 159.57 94.23 160.02
  A 0.85 0.84 1.5 0 1 94.75 160.57
  L 97.63 170.11
  A 1.91 1.90 -24.8 0 1 96.83 172.26
  Q 87.97 178.00 80.72 182.57
  A 1.13 1.12 -26.3 0 1 79.06 182.02
  Z"
/>
<circle fill="#baa377" cx="61.65" cy="169.12" r="8.28"/>
<path fill="#baa377" d="
  M 517.52 181.46
  A 0.71 0.71 0.0 0 1 516.83 181.97
  Q 502.36 181.63 495.54 181.39
  A 1.69 1.69 0.0 0 1 493.95 179.35
  Q 494.12 178.56 495.55 177.56
  Q 499.48 174.78 516.49 162.07
  C 518.70 160.41 520.91 159.87 522.25 162.71
  A 2.30 2.29 -50.0 0 1 522.39 164.34
  L 517.52 181.46
  Z"
/>
<ellipse fill="#baa377" cx="0.00" cy="0.00" transform="translate(552.11,176.49) rotate(-94.0)" rx="8.77" ry="7.81"/>
<path fill="#baa377" d="
  M 523.67 171.30
  A 1.29 1.29 0.0 0 1 525.91 171.01
  Q 526.03 171.18 539.42 192.21
  A 1.50 1.49 57.9 0 1 538.96 194.28
  Q 538.40 194.63 537.42 194.12
  Q 524.36 187.33 522.47 186.38
  C 520.50 185.38 519.17 184.08 519.89 181.89
  Q 521.78 176.08 523.67 171.30
  Z"
/>
<path fill="#baa377" d="
  M 70.50 218.73
  C 79.05 195.98 98.34 177.47 124.70 182.66
  Q 133.00 184.30 139.30 187.34
  Q 172.63 203.42 199.90 229.41
  A 1.66 1.66 0.0 0 1 200.13 231.55
  C 193.82 240.86 188.30 251.05 184.36 261.52
  C 180.42 271.99 177.87 283.30 176.49 294.46
  A 1.66 1.66 0.0 0 1 174.90 295.92
  Q 137.26 297.52 101.60 287.66
  Q 94.86 285.80 87.53 281.56
  C 64.28 268.10 61.95 241.47 70.50 218.73
  Z"
/>
<path fill="#baa377" d="
  M 416.87 235.69
  Q 434.32 219.11 454.83 206.48
  C 473.41 195.03 502.68 182.81 522.53 198.47
  Q 540.64 212.76 546.47 235.60
  C 551.58 255.57 547.38 276.26 530.51 289.01
  Q 521.84 295.54 503.53 299.66
  Q 470.15 307.16 436.90 304.14
  A 2.49 2.48 2.0 0 1 434.64 301.73
  Q 433.91 267.50 416.55 237.95
  A 1.84 1.83 -37.2 0 1 416.87 235.69
  Z"
/>
<path fill="#baa377" d="
  M 54.12 200.32
  A 2.67 2.67 0.0 0 1 53.90 204.09
  L 52.98 204.92
  A 10.23 7.94 -41.7 0 1 40.06 205.79
  L 39.84 205.55
  A 10.23 7.94 -41.7 0 1 42.20 192.82
  L 43.13 192.00
  A 2.67 2.67 0.0 0 1 46.90 192.21
  L 54.12 200.32
  Z"
/>
<path fill="#baa377" d="
  M 413.58 305.96
  A 107.68 107.68 0.0 0 1 305.90 413.64
  A 107.68 107.68 0.0 0 1 198.22 305.96
  A 107.68 107.68 0.0 0 1 305.90 198.28
  A 107.68 107.68 0.0 0 1 413.58 305.96
  Z
  M 327.16 244.72
  A 11.24 11.24 0.0 0 0 315.92 233.48
  A 11.24 11.24 0.0 0 0 304.68 244.72
  A 11.24 11.24 0.0 0 0 315.92 255.96
  A 11.24 11.24 0.0 0 0 327.16 244.72
  Z
  M 279.48 258.36
  A 11.23 11.23 0.0 0 0 268.25 247.13
  A 11.23 11.23 0.0 0 0 257.02 258.36
  A 11.23 11.23 0.0 0 0 268.25 269.59
  A 11.23 11.23 0.0 0 0 279.48 258.36
  Z
  M 364.44 268.27
  A 11.12 11.12 0.0 0 0 353.32 257.15
  A 11.12 11.12 0.0 0 0 342.20 268.27
  A 11.12 11.12 0.0 0 0 353.32 279.39
  A 11.12 11.12 0.0 0 0 364.44 268.27
  Z
  M 260.43 296.24
  A 11.28 11.28 0.0 0 0 249.15 284.96
  A 11.28 11.28 0.0 0 0 237.87 296.24
  A 11.28 11.28 0.0 0 0 249.15 307.52
  A 11.28 11.28 0.0 0 0 260.43 296.24
  Z
  M 317.10 304.83
  A 11.16 11.16 0.0 0 0 305.94 293.67
  A 11.16 11.16 0.0 0 0 294.78 304.83
  A 11.16 11.16 0.0 0 0 305.94 315.99
  A 11.16 11.16 0.0 0 0 317.10 304.83
  Z
  M 377.53 309.80
  A 11.15 11.15 0.0 0 0 366.38 298.65
  A 11.15 11.15 0.0 0 0 355.23 309.80
  A 11.15 11.15 0.0 0 0 366.38 320.95
  A 11.15 11.15 0.0 0 0 377.53 309.80
  Z
  M 272.69 340.61
  A 11.16 11.16 0.0 0 0 261.53 329.45
  A 11.16 11.16 0.0 0 0 250.37 340.61
  A 11.16 11.16 0.0 0 0 261.53 351.77
  A 11.16 11.16 0.0 0 0 272.69 340.61
  Z
  M 355.52 351.15
  A 11.00 11.00 0.0 0 0 344.52 340.15
  A 11.00 11.00 0.0 0 0 333.52 351.15
  A 11.00 11.00 0.0 0 0 344.52 362.15
  A 11.00 11.00 0.0 0 0 355.52 351.15
  Z
  M 313.00 362.32
  A 11.23 11.23 0.0 0 0 301.77 351.09
  A 11.23 11.23 0.0 0 0 290.54 362.32
  A 11.23 11.23 0.0 0 0 301.77 373.55
  A 11.23 11.23 0.0 0 0 313.00 362.32
  Z"
/>
<circle fill="#baa377" cx="566.77" cy="206.80" r="8.44"/>
<circle fill="#baa377" cx="36.26" cy="234.52" r="8.12"/>
<circle fill="#baa377" cx="577.30" cy="239.96" r="8.24"/>
<path fill="#baa377" d="
  M 54.06 257.73
  L 63.14 271.11
  A 1.16 1.16 0.0 0 1 62.90 272.67
  L 50.28 282.76
  A 1.16 1.16 0.0 0 1 48.41 281.68
  L 51.96 258.21
  A 1.16 1.16 0.0 0 1 54.06 257.73
  Z"
/>
<rect fill="#baa377" x="-7.07" y="-7.75" transform="translate(29.78,266.64) rotate(-41.5)" width="14.14" height="15.50" rx="4.96"/>
<path fill="#baa377" d="
  M 559.77 259.17
  A 1.10 1.09 79.4 0 1 561.16 260.13
  Q 563.10 280.72 564.56 296.80
  A 1.67 1.66 85.1 0 1 563.05 298.61
  C 561.77 298.72 555.63 293.42 550.59 289.44
  A 2.43 2.42 -61.5 0 1 549.81 286.76
  Q 557.88 262.77 558.98 259.82
  Q 559.15 259.34 559.77 259.17
  Z"
/>
<circle fill="#baa377" cx="582.89" cy="273.08" r="8.04"/>
<path fill="#baa377" d="
  M 81.36 297.74
  A 1.70 1.59 13.0 0 0 79.93 295.61
  Q 66.09 293.79 51.57 294.83
  Q 49.87 294.96 49.00 294.57
  C 47.16 293.74 47.04 291.10 48.48 289.87
  Q 59.17 280.72 63.78 276.73
  C 65.64 275.13 67.54 274.51 69.25 276.51
  Q 75.82 284.19 80.50 289.59
  C 84.46 294.16 84.86 297.53 80.29 301.31
  Q 79.56 301.92 67.52 312.27
  C 65.56 313.96 63.77 313.53 61.75 312.06
  Q 57.29 308.78 47.88 301.88
  Q 46.97 301.21 47.19 300.11
  A 1.86 1.77 -80.8 0 1 49.15 298.62
  Q 64.36 300.47 79.66 299.01
  A 1.91 1.86 -61.7 0 0 80.36 298.79
  Q 81.15 298.33 81.36 297.74
  Z"
/>
<circle fill="#baa377" cx="27.83" cy="299.40" r="8.28"/>
<path fill="#baa377" d="
  M 528.84 304.12
  A 1.40 1.39 77.5 0 1 529.45 303.15
  L 546.24 292.02
  A 1.62 1.62 0.0 0 1 548.04 292.02
  Q 553.11 295.49 562.95 302.36
  C 564.92 303.74 564.21 306.52 561.87 306.52
  Q 538.02 306.52 531.98 306.46
  C 530.12 306.44 528.54 306.21 528.84 304.12
  Z"
/>
<circle fill="#baa377" cx="584.92" cy="306.84" r="8.32"/>
<path fill="#baa377" d="
  M 175.85 307.24
  A 1.83 1.82 4.8 0 1 177.31 308.96
  Q 178.46 342.94 196.02 372.02
  A 2.47 2.46 -34.3 0 1 195.41 375.23
  Q 169.14 395.42 137.19 406.87
  Q 119.66 413.14 108.93 412.26
  C 88.02 410.54 73.51 395.43 67.19 375.98
  Q 59.94 353.74 67.54 332.15
  C 75.86 308.49 106.87 303.18 128.53 302.92
  Q 152.42 302.61 175.85 307.24
  Z"
/>
<path fill="#baa377" d="
  M 50.31 342.99
  Q 49.64 342.77 49.54 341.62
  Q 49.12 337.00 46.84 311.64
  A 1.82 1.81 79.7 0 1 48.16 309.73
  Q 48.91 309.52 49.73 310.22
  Q 59.06 318.15 60.06 318.99
  Q 61.70 320.38 60.52 322.07
  Q 54.40 330.88 52.10 341.93
  A 1.41 1.36 -74.8 0 1 50.31 342.99
  Z"
/>
<path fill="#baa377" d="
  M 533.25 314.66
  A 1.22 1.19 82.3 0 1 534.40 313.12
  Q 556.68 313.17 561.22 313.09
  Q 562.56 313.07 563.16 313.64
  A 1.44 1.42 -43.3 0 1 563.08 315.75
  Q 557.88 320.26 548.66 328.18
  C 546.77 329.80 545.43 329.19 543.93 327.41
  Q 542.32 325.49 533.78 315.53
  Q 533.36 315.04 533.25 314.66
  Z"
/>
<path fill="#baa377" d="
  M 435.33 316.25
  A 2.15 2.15 0.0 0 1 437.22 314.50
  C 460.89 311.98 486.36 312.75 508.78 319.70
  C 521.49 323.64 533.88 330.85 539.94 343.01
  Q 542.27 347.68 543.20 355.60
  Q 544.39 365.76 543.65 375.23
  C 541.45 403.46 519.45 432.17 488.38 425.77
  Q 473.42 422.68 457.12 413.86
  Q 433.90 401.28 412.50 383.47
  C 410.71 381.97 411.06 380.54 412.35 378.73
  Q 429.18 355.04 433.86 325.43
  Q 435.17 317.11 435.33 316.25
  Z"
/>
<path fill="#baa377" d="
  M 560.35 353.67
  A 1.11 1.11 0.0 0 1 558.33 353.40
  Q 555.76 344.40 549.96 336.45
  Q 549.17 335.37 550.04 333.45
  A 1.08 1.07 80.6 0 1 550.29 333.09
  Q 554.69 328.85 561.00 322.95
  Q 562.02 321.99 563.40 322.56
  A 2.31 2.29 15.6 0 1 564.80 325.02
  Q 560.90 351.05 560.66 352.64
  Q 560.55 353.34 560.35 353.67
  Z"
/>
<circle fill="#baa377" cx="29.06" cy="335.48" r="7.88"/>
<circle fill="#baa377" cx="582.57" cy="343.84" r="7.92"/>
<circle fill="#baa377" cx="36.29" cy="371.48" r="7.96"/>
<circle fill="#baa377" cx="576.91" cy="376.00" r="7.92"/>
<path fill="#baa377" d="
  M 203.27 386.63
  A 1.83 1.82 -32.5 0 1 205.48 387.11
  Q 227.02 413.47 258.66 425.96
  A 2.47 2.46 -71.7 0 1 260.13 428.89
  Q 251.47 460.91 232.98 489.43
  Q 222.83 505.07 213.75 510.88
  C 196.05 522.20 175.33 518.98 158.49 507.34
  Q 139.22 494.02 132.15 472.22
  C 124.42 448.33 145.89 425.28 162.97 411.92
  Q 181.81 397.17 203.27 386.63
  Z"
/>
<path fill="#baa377" d="
  M 406.37 388.96
  Q 427.80 399.93 446.53 415.09
  C 463.51 428.82 484.74 452.39 476.56 476.32
  Q 469.09 498.15 449.47 511.24
  C 432.31 522.68 411.40 525.59 393.76 513.90
  Q 384.72 507.89 374.76 491.98
  Q 356.61 462.96 348.42 430.58
  A 2.49 2.48 72.6 0 1 349.94 427.65
  Q 382.01 415.60 404.13 389.41
  A 1.84 1.83 33.5 0 1 406.37 388.96
  Z"
/>
<circle fill="#baa377" cx="43.28" cy="400.80" r="7.95"/>
<path fill="#baa377" d="
  M 558.92 413.09
  A 2.84 2.84 0.0 0 1 557.49 409.34
  L 558.26 407.61
  A 10.97 7.24 -65.9 0 1 569.35 400.55
  L 569.62 400.68
  A 10.97 7.24 -65.9 0 1 571.75 413.65
  L 570.98 415.37
  A 2.84 2.84 0.0 0 1 567.23 416.80
  L 558.92 413.09
  Z"
/>
<path fill="#baa377" d="
  M 69.61 411.62
  A 1.16 1.16 0.0 0 1 71.49 410.63
  Q 79.12 416.79 88.88 420.09
  Q 90.22 420.54 90.62 422.70
  A 1.13 1.12 45.4 0 1 90.62 423.16
  Q 89.42 429.44 87.57 438.30
  Q 87.28 439.74 85.75 440.08
  A 2.42 2.39 -19.5 0 1 83.07 438.81
  Q 70.72 414.19 69.97 412.69
  Q 69.63 412.02 69.61 411.62
  Z"
/>
<circle fill="#baa377" cx="57.45" cy="431.08" r="8.32"/>
<path fill="#baa377" d="
  M 117.79 428.04
  C 119.29 428.37 120.25 429.87 119.74 431.35
  Q 119.52 431.98 118.04 433.01
  Q 109.99 438.56 93.33 449.99
  A 2.01 1.99 -39.1 0 1 90.75 449.74
  Q 89.98 448.93 90.17 447.98
  Q 90.85 444.49 95.02 425.06
  A 1.84 1.84 0.0 0 1 97.20 423.64
  Q 110.92 426.54 117.79 428.04
  Z"
/>
<path fill="#baa377" d="
  M 518.35 448.97
  Q 516.71 443.91 515.14 437.78
  C 514.55 435.48 516.00 434.22 518.10 433.32
  Q 520.12 432.46 534.05 426.31
  Q 535.10 425.85 535.65 426.25
  A 1.55 1.54 -54.2 0 1 535.99 428.41
  Q 520.78 449.25 520.64 449.42
  A 1.33 1.33 0.0 0 1 518.35 448.97
  Z"
/>
<path fill="#baa377" d="
  M 302.62 556.57
  C 278.29 556.29 254.27 544.44 250.17 517.85
  Q 248.87 509.47 249.58 502.51
  Q 253.35 465.64 268.51 431.09
  A 1.67 1.67 0.0 0 1 270.45 430.15
  C 281.37 432.90 292.85 434.63 304.05 434.77
  C 315.26 434.90 326.77 433.44 337.75 430.94
  A 1.67 1.67 0.0 0 1 339.67 431.93
  Q 354.02 466.83 356.91 503.77
  Q 357.46 510.75 355.97 519.10
  C 351.23 545.58 326.95 556.86 302.62 556.57
  Z"
/>
<circle fill="#baa377" cx="550.92" cy="438.16" r="8.24"/>
<path fill="#baa377" d="
  M 126.15 436.69
  L 118.20 456.64
  A 1.73 1.73 0.0 0 1 116.61 457.73
  Q 110.07 457.77 97.27 457.72
  C 94.71 457.71 93.64 454.84 95.69 453.42
  Q 116.60 438.94 121.93 435.33
  C 123.57 434.22 125.09 433.46 126.10 435.47
  A 1.49 1.48 42.8 0 1 126.15 436.69
  Z"
/>
<path fill="#baa377" d="
  M 483.95 438.47
  A 1.31 1.31 0.0 0 1 485.33 436.50
  Q 496.19 438.74 507.71 437.01
  Q 509.29 436.77 510.82 438.73
  A 1.28 1.27 18.2 0 1 511.06 439.20
  Q 513.10 446.14 515.83 456.00
  Q 516.28 457.60 514.92 458.73
  A 2.73 2.71 -46.8 0 1 511.57 458.85
  Q 486.39 440.48 484.86 439.36
  Q 484.18 438.86 483.95 438.47
  Z"
/>
<path fill="#baa377" d="
  M 488.20 469.15
  A 0.76 0.76 0.0 0 1 487.44 468.62
  Q 482.85 453.74 480.78 446.70
  A 1.82 1.81 78.7 0 1 482.32 444.38
  Q 483.18 444.29 484.70 445.40
  Q 488.87 448.46 507.64 461.50
  C 510.08 463.19 511.39 465.25 508.95 467.59
  A 2.48 2.46 21.6 0 1 507.32 468.29
  L 488.20 469.15
  Z"
/>
<circle fill="#baa377" cx="75.78" cy="460.52" r="7.96"/>
<circle fill="#baa377" cx="534.54" cy="465.84" r="8.32"/>
<path fill="#baa377" d="
  M 122.96 489.02
  Q 122.24 489.23 121.45 488.29
  Q 118.25 484.53 100.74 463.90
  A 1.93 1.93 0.0 0 1 100.71 461.44
  Q 101.23 460.79 102.38 460.89
  Q 115.35 462.07 116.73 462.19
  Q 119.00 462.39 119.01 464.58
  Q 119.09 475.98 123.86 487.00
  A 1.50 1.45 70.0 0 1 122.96 489.02
  Z"
/>
<path fill="#baa377" d="
  M 497.28 476.49
  A 1.13 1.12 20.2 0 1 498.10 478.27
  Q 497.99 478.42 483.95 495.06
  A 1.31 1.30 -49.5 0 1 482.11 495.21
  Q 481.67 494.84 481.84 493.89
  Q 484.09 481.24 484.40 479.41
  C 484.71 477.51 485.46 476.07 487.46 476.09
  Q 492.80 476.15 497.28 476.49
  Z"
/>
<ellipse fill="#baa377" cx="0.00" cy="0.00" transform="translate(96.90,487.25) rotate(-108.8)" rx="8.32" ry="7.81"/>
<circle fill="#baa377" cx="513.57" cy="493.08" r="8.16"/>
<circle fill="#baa377" cx="120.70" cy="511.80" r="8.09"/>
<circle fill="#baa377" cx="489.38" cy="517.15" r="8.13"/>
<path fill="#baa377" d="
  M 228.59 519.88
  L 220.45 546.05
  A 1.00 1.00 0.0 0 0 221.09 547.30
  L 221.31 547.39
  A 1.21 1.20 21.6 0 0 222.88 546.72
  L 234.62 517.24
  A 1.05 1.04 2.9 0 1 235.31 516.62
  C 236.70 516.24 237.28 517.32 237.54 518.53
  Q 239.55 527.93 244.36 535.67
  A 2.16 2.15 -33.3 0 1 243.75 538.58
  L 227.18 550.00
  A 2.90 2.89 -59.5 0 1 225.26 550.50
  C 220.85 550.10 212.51 548.81 209.97 544.81
  A 1.67 1.66 -68.9 0 1 209.74 544.29
  L 206.08 531.14
  A 1.30 1.29 -49.5 0 1 206.04 530.59
  Q 206.32 528.15 208.11 527.35
  Q 221.70 521.32 227.46 518.86
  A 0.84 0.84 0.0 0 1 228.59 519.88
  Z"
/>
<path fill="#baa377" d="
  M 393.96 532.41
  L 386.41 551.36
  A 2.64 2.62 87.6 0 1 385.14 552.75
  C 381.93 554.39 380.31 552.35 379.46 549.30
  Q 372.90 525.85 371.27 520.58
  Q 370.68 518.67 371.08 517.83
  A 1.94 1.93 30.5 0 1 373.95 517.09
  Q 380.31 521.64 393.69 531.46
  A 0.81 0.81 0.0 0 1 393.96 532.41
  Z"
/>
<path fill="#baa377" d="
  M 356.86 545.34
  A 0.69 0.69 0.0 0 1 356.56 544.56
  Q 360.61 531.03 362.59 524.68
  A 1.65 1.64 -67.5 0 1 364.92 523.71
  Q 365.62 524.08 366.20 525.68
  Q 367.80 530.09 375.37 549.38
  C 376.35 551.89 376.30 554.10 373.28 554.64
  A 2.24 2.23 55.4 0 1 371.70 554.34
  L 356.86 545.34
  Z"
/>
<circle fill="#baa377" cx="147.06" cy="532.71" r="8.18"/>
<path fill="#baa377" d="
  M 178.38 531.34
  A 1.25 1.24 -5.1 0 1 179.63 529.85
  Q 189.12 529.98 200.83 530.28
  A 2.12 2.10 -6.6 0 1 202.82 531.85
  L 205.63 542.53
  A 0.94 0.93 -33.0 0 1 205.45 543.35
  Q 204.52 544.51 203.03 543.79
  Q 189.70 537.37 178.98 532.13
  A 1.08 0.96 -4.1 0 1 178.71 531.92
  Q 178.44 531.60 178.38 531.34
  Z"
/>
<ellipse fill="#baa377" cx="0.00" cy="0.00" transform="translate(462.65,537.91) rotate(-148.3)" rx="8.41" ry="7.33"/>
<path fill="#baa377" d="
  M 427.99 534.44
  Q 427.99 535.25 426.78 535.78
  Q 421.91 537.93 395.20 549.69
  A 2.08 2.08 0.0 0 1 392.65 548.96
  Q 392.14 548.22 392.60 547.07
  Q 397.80 534.03 398.35 532.64
  Q 399.25 530.35 401.52 531.01
  Q 413.33 534.44 426.18 532.89
  A 1.62 1.56 -3.4 0 1 427.99 534.44
  Z"
/>
<path fill="#baa377" d="
  M 272.53 561.91
  A 1.16 1.15 6.8 0 1 271.12 563.01
  Q 249.69 558.46 232.97 554.85
  A 1.77 1.76 12.4 0 1 231.62 552.75
  C 231.91 551.43 239.21 546.89 244.83 543.06
  A 2.57 2.57 0.0 0 1 247.78 543.11
  Q 269.48 558.86 272.12 560.90
  Q 272.55 561.23 272.53 561.91
  Z"
/>
<circle fill="#baa377" cx="174.88" cy="552.04" r="8.01"/>
<circle fill="#baa377" cx="432.76" cy="553.84" r="8.61"/>
<path fill="#baa377" d="
  M 362.00 556.30
  A 1.13 1.13 0.0 0 1 361.62 558.24
  Q 361.44 558.30 340.24 563.54
  A 1.31 1.30 -13.6 0 1 338.66 562.59
  Q 338.52 562.03 339.21 561.35
  Q 348.49 552.40 349.81 551.10
  C 351.19 549.74 352.64 549.01 354.26 550.20
  Q 358.56 553.40 362.00 556.30
  Z"
/>
<circle fill="#baa377" cx="207.71" cy="566.04" r="8.21"/>
<circle fill="#baa377" cx="404.36" cy="566.73" r="8.16"/>
<circle fill="#baa377" cx="237.77" cy="575.88" r="8.13"/>
<circle fill="#baa377" cx="375.70" cy="575.88" r="8.13"/>
<circle fill="#baa377" cx="339.20" cy="582.20" r="8.14"/>
<circle fill="#baa377" cx="270.37" cy="582.20" r="8.02"/>
<circle fill="#baa377" cx="304.39" cy="585.27" r="8.24"/>
</svg>
